# xmcd
#
# Track frame offsets:
#        150
#        36358
#        51703
#        73158
#        80880
#        102318
#        127188
#        144793
#        157768
#        168985
#
# Disc length: 2604 seconds
#
# Revision: 0
# Processed by: cddbd v1.5.1PL2 Copyright (c) Steve Scherf et al.
# Submitted via: ExactAudioCopy v0.95b3
#
DISCID=900a2a0a
DTITLE=Black Sabbath - Black Sabbath VOL.4
DYEAR=1972
DGENRE=Heavy Metal
TTITLE0=WHEELS OF CONFUSION
TTITLE1=TOMORROW'S DREAM
TTITLE2=CHANGES
TTITLE3=FX
TTITLE4=SUPER NAUT
TTITLE5=SNOWBLIND
TTITLE6=CORNUCOPIA
TTITLE7=LAGUNA SUNRISE
TTITLE8=St. VITUS DANCE
TTITLE9=UNDER THE SUN
EXTD=
EXTT0=
EXTT1=
EXTT2=
EXTT3=
EXTT4=
EXTT5=
EXTT6=
EXTT7=
EXTT8=
EXTT9=
PLAYORDER=
